<svg width="49" height="33" viewBox="0 0 49 33" fill="none" xmlns="http://www.w3.org/2000/svg">
<path fill-rule="evenodd" clip-rule="evenodd" d="M4.31575 0.146985C1.85737 0.802852 0 3.21042 0 5.74122C0 8.30345 1.86675 10.6954 4.36552 11.3348C4.89301 11.4697 6.96977 11.4853 24.5 11.4853C46.2253 11.4853 44.5349 11.5362 45.8926 10.8415C46.8377 10.3578 47.8877 9.2939 48.3616 8.33991C49.2041 6.64375 49.2041 4.83869 48.3616 3.14253C47.8862 2.18541 46.8384 1.12537 45.8838 0.635656C44.5405 -0.0534405 46.2336 -0.00350008 24.456 0.00343076C7.65184 0.00874758 4.75633 0.0294453 4.31575 0.146985ZM4.25602 21.6886C3.28852 21.9648 2.49523 22.4422 1.71782 23.216C-0.0873889 25.0126 -0.501457 27.5589 0.638427 29.8538C1.11385 30.8109 2.16156 31.871 3.11623 32.3607C4.45884 33.0495 2.77443 32.9992 24.5 32.9992C41.7588 32.9992 44.1482 32.982 44.6433 32.8541C47.1291 32.2118 49 29.8075 49 27.2551C49 24.6929 47.1332 22.301 44.6345 21.6616C44.1065 21.5264 42.0392 21.5117 24.4384 21.5178C6.16049 21.5242 4.79136 21.5358 4.25602 21.6886Z" fill="#4C4C4C"/>
</svg>
