<svg width="49" height="49" viewBox="0 0 49 49" fill="none" xmlns="http://www.w3.org/2000/svg">
<path fill-rule="evenodd" clip-rule="evenodd" d="M23.648 0.0809665C21.8944 0.425243 20.443 1.97047 20.1912 3.76111C20.1359 4.15433 20.096 7.56626 20.095 12.0101L20.0931 19.5885L19.8406 19.8411L19.5879 20.0937L12.009 20.0956C7.56482 20.0966 4.15266 20.1365 3.75941 20.1917C1.38581 20.5256 -0.331097 22.8214 0.054109 25.1465C0.371011 27.0584 1.86432 28.5334 3.75941 28.8062C4.16397 28.8645 7.43664 28.9035 12.009 28.9046L19.5879 28.9065L19.8406 29.159L20.0931 29.4116L20.095 36.99C20.096 41.4339 20.1359 44.8459 20.1912 45.2391C20.4571 47.1295 21.9433 48.6276 23.8696 48.9468C26.178 49.3292 28.4757 47.6043 28.8085 45.2391C28.8637 44.8459 28.9036 41.4339 28.9046 36.99L28.9066 29.4116L29.1591 29.159L29.4117 28.9065L36.9906 28.9046C41.563 28.9035 44.8357 28.8645 45.2402 28.8062C47.1353 28.5334 48.6286 27.0584 48.9455 25.1465C49.3312 22.8186 47.6244 20.5372 45.2402 20.194C44.8357 20.1357 41.563 20.0967 36.9906 20.0956L29.4117 20.0937L29.1591 19.8411L28.9066 19.5885L28.9046 12.0101C28.9035 7.43809 28.8645 4.16564 28.8063 3.76111C28.451 1.2935 26.0816 -0.39694 23.648 0.0809665Z" fill="#4C4C4C"/>
</svg>
